# ProBuilder 4.5.2
# https://unity3d.com/unity/features/worldbuilding/probuilder
# 4/21/2023 4:29:49 PM

mtllib ./Colliders.mtl
o Colliders

g Cube (1)
v -2.321661E-08 6.463269E-08 2.119378
v -2 6.463269E-08 2.119378
v -2.321661E-08 2 0.001222241
v -2 2 0.001222241
v -3.533504 6.463269E-08 -1.347955E-07
v -3.533504 6.463269E-08 -2.000001
v -2.025581 2 -1.347955E-07
v -2.025581 2 -2
v -2 0 -2
v 0 0 -2
v -2 2 -2
v 0 2 -2
v 1.544446 6.463269E-08 -2.000001
v 1.544446 6.463269E-08 -1.347955E-07
v 0.02094471 2 -2
v 0.02094471 2 -1.347955E-07
v 0 2 0
v -2 2 0
v 0 0 0
v -2 0 0

vt 2.321661E-08 1.54099
vt 2 1.54099
vt 2.321661E-08 -1.372184
vt 2 -1.372184
vt -1.347955E-07 -2.127249
vt -2.000001 -2.127249
vt -1.347955E-07 0.3775126
vt -2 0.3775126
vt 2 0
vt 0 0
vt 2 2
vt 0 2
vt 2.000001 -0.9358807
vt 1.347955E-07 -0.9358807
vt 2 1.57829
vt 1.347955E-07 1.57829
vt 0 -2
vt 2 -2
vt -2 -2
vt -2 0
vt -2.321661E-08 2.119378
vt -2 2.119378
vt -0.001222241 2
vt -2.119378 6.463269E-08
vt 2.119378 6.463269E-08
vt 0.001222129 2
vt 2 0.001027174
vt 2.321661E-08 0.001027174
vt -3.533504 -1.347955E-07
vt -3.533504 -2.000001
vt -2 2
vt -2.025581 2
vt 3.533505 6.463269E-08
vt 2.025582 2
vt 1.999991 -2
vt 1.999991 0
vt 2.025572 -2
vt 2.025572 -1.347955E-07
vt 1.544446 -2.000001
vt 1.544446 -1.347955E-07
vt -0.02096748 2
vt -1.544468 6.463269E-08
vt 0.02094471 2
vt -0.02093333 -1.347955E-07
vt -0.02093333 -2

vn 0 0.7270955 0.6865363
vn -0.798479 0.6020226 0
vn 0 0 -1
vn 0.7954909 0.6059656 0
vn 0 1 0
vn 0 -1 0
vn 1 0 1.899512E-05
vn -1 0 5.62473E-08
vn -5.269385E-06 0 1

usemtl ProBuilderDefault
f 3/3/1 4/4/1 2/2/1 1/1/1
f 7/7/2 8/8/2 6/6/2 5/5/2
f 11/11/3 12/12/3 10/10/3 9/9/3
f 15/15/4 16/16/4 14/14/4 13/13/4
f 12/17/5 11/18/5 18/9/5 17/10/5
f 19/10/6 20/20/6 9/19/6 10/17/6
f 1/21/6 2/22/6 20/20/6 19/10/6
f 3/23/7 1/24/7 19/10/7 17/12/7
f 2/25/8 4/26/8 18/12/8 20/10/8
f 4/27/5 3/28/5 17/10/5 18/9/5
f 5/29/6 6/30/6 9/19/6 20/20/6
f 7/32/9 5/29/9 20/20/9 18/31/9
f 6/33/3 8/34/3 11/11/3 9/9/3
f 8/37/5 7/38/5 18/36/5 11/35/5
f 13/39/6 14/40/6 19/10/6 10/17/6
f 15/41/3 13/42/3 10/10/3 12/12/3
f 14/40/9 16/43/9 17/12/9 19/10/9
f 16/44/5 15/45/5 12/17/5 17/10/5

