# ProBuilder 4.5.2
# https://unity3d.com/unity/features/worldbuilding/probuilder
# 4/23/2023 4:52:53 PM

mtllib ./Stairs.mtl
o Stairs

g Stairs
v 0 0 0
v 5 0 0
v 0 0.3333333 0
v 5 0.3333333 0
v 0 0.3333333 0.3333333
v 5 0.3333333 0.3333333
v 0 0.6666667 0.3333333
v 5 0.6666667 0.3333333
v 0 0.6666667 0.6666667
v 5 0.6666667 0.6666667
v 0 1 0.6666667
v 5 1 0.6666667
v 0 1 1
v 5 1 1
v 0 1.333333 1
v 5 1.333333 1
v 0 1.333333 1.333333
v 5 1.333333 1.333333
v 0 1.666667 1.333333
v 5 1.666667 1.333333
v 0 1.666667 1.666667
v 5 1.666667 1.666667
v 0 2 1.666667
v 5 2 1.666667
v 0 2 2
v 5 2 2
v 0 2.333333 2
v 5 2.333333 2
v 0 2.333333 2.333333
v 5 2.333333 2.333333
v 0 2.666667 2.333333
v 5 2.666667 2.333333
v 0 2.666667 2.666667
v 5 2.666667 2.666667
v 0 3 2.666667
v 5 3 2.666667
v 0 3 3
v 5 3 3
v 0 3.333333 3
v 5 3.333333 3
v 0 3.333333 3.333333
v 5 3.333333 3.333333
v 0 3.666667 3.333333
v 5 3.666667 3.333333
v 0 3.666667 3.666667
v 5 3.666667 3.666667
v 0 4 3.666667
v 5 4 3.666667
v 0 4 4
v 5 4 4
v 0 4.333333 4
v 5 4.333333 4
v 0 4.333333 4.333333
v 5 4.333333 4.333333
v 0 4.666667 4.333333
v 5 4.666667 4.333333
v 0 4.666667 4.666667
v 5 4.666667 4.666667
v 0 5 4.666667
v 5 5 4.666667
v 0 5 5
v 5 5 5
v 0 5.333333 5
v 5 5.333333 5
v 0 5.333333 5.333333
v 5 5.333333 5.333333
v 0 5.666667 5.333333
v 5 5.666667 5.333333
v 0 5.666667 5.666667
v 5 5.666667 5.666667
v 0 6 5.666667
v 5 6 5.666667
v 0 6 6
v 5 6 6
v 0 6.333333 6
v 5 6.333333 6
v 0 6.333333 6.333333
v 5 6.333333 6.333333
v 0 6.666667 6.333333
v 5 6.666667 6.333333
v 0 6.666667 6.666667
v 5 6.666667 6.666667
v 0 7 6.666667
v 5 7 6.666667
v 0 7 7
v 5 7 7
v 0 7.333333 7
v 5 7.333333 7
v 0 7.333333 7.333333
v 5 7.333333 7.333333
v 0 7.666667 7.333333
v 5 7.666667 7.333333
v 0 7.666667 7.666667
v 5 7.666667 7.666667
v 0 8 7.666667
v 5 8 7.666667
v 0 8 8
v 5 8 8
v 0 8.333333 8
v 5 8.333333 8
v 0 8.333333 8.333333
v 5 8.333333 8.333333
v 0 8.666667 8.333333
v 5 8.666667 8.333333
v 0 8.666667 8.666667
v 5 8.666667 8.666667
v 0 9 8.666667
v 5 9 8.666667
v 0 9 9
v 5 9 9
v 0 9.333333 9
v 5 9.333333 9
v 0 9.333333 9.333333
v 5 9.333333 9.333333
v 0 9.666666 9.333333
v 5 9.666666 9.333333
v 0 9.666666 9.666666
v 5 9.666666 9.666666
v 0 10 9.666666
v 5 10 9.666666
v 0 10 10
v 5 10 10
v 5 0 0.3333333
v 5 0 0.6666667
v 5 0 1
v 5 0 1.333333
v 5 0 1.666667
v 5 0 2
v 5 0 2.333333
v 5 0 2.666667
v 5 0 3
v 5 0 3.333333
v 5 0 3.666667
v 5 0 4
v 5 0 4.333333
v 5 0 4.666667
v 5 0 5
v 5 0 5.333333
v 5 0 5.666667
v 5 0 6
v 5 0 6.333333
v 5 0 6.666667
v 5 0 7
v 5 0 7.333333
v 5 0 7.666667
v 5 0 8
v 5 0 8.333333
v 5 0 8.666667
v 5 0 9
v 5 0 9.333333
v 5 0 9.666667
v 5 0 10
v 0 0 0.3333333
v 0 0 0.6666667
v 0 0 1
v 0 0 1.333333
v 0 0 1.666667
v 0 0 2
v 0 0 2.333333
v 0 0 2.666667
v 0 0 3
v 0 0 3.333333
v 0 0 3.666667
v 0 0 4
v 0 0 4.333333
v 0 0 4.666667
v 0 0 5
v 0 0 5.333333
v 0 0 5.666667
v 0 0 6
v 0 0 6.333333
v 0 0 6.666667
v 0 0 7
v 0 0 7.333333
v 0 0 7.666667
v 0 0 8
v 0 0 8.333333
v 0 0 8.666667
v 0 0 9
v 0 0 9.333333
v 0 0 9.666667
v 0 0 10

vt 0 0
vt -5 0
vt 0 0.3333333
vt -5 0.3333333
vt 0 0.6666667
vt -5 0.6666667
vt 0 1
vt -5 1
vt 0 1.333333
vt -5 1.333333
vt 0 1.666667
vt -5 1.666667
vt 0 2
vt -5 2
vt 0 2.333333
vt -5 2.333333
vt 0 2.666667
vt -5 2.666667
vt 0 3
vt -5 3
vt 0 3.333333
vt -5 3.333333
vt 0 3.666667
vt -5 3.666667
vt 0 4
vt -5 4
vt 0 4.333333
vt -5 4.333333
vt 0 4.666667
vt -5 4.666667
vt 0 5
vt -5 5
vt 0 5.333333
vt -5 5.333333
vt 0 5.666667
vt -5 5.666667
vt 0 6
vt -5 6
vt 0 6.333333
vt -5 6.333333
vt 0 6.666667
vt -5 6.666667
vt 0 7
vt -5 7
vt 0 7.333333
vt -5 7.333333
vt 0 7.666667
vt -5 7.666667
vt 0 8
vt -5 8
vt 0 8.333333
vt -5 8.333333
vt 0 8.666667
vt -5 8.666667
vt 0 9
vt -5 9
vt 0 9.333333
vt -5 9.333333
vt 0 9.666666
vt -5 9.666666
vt 0 10
vt -5 10
vt -0.3333333 0
vt -0.3333333 0.3333333
vt -0.6666667 0
vt -0.6666667 0.6666667
vt -0.3333333 0.6666667
vt -1 0
vt -1 1
vt -0.6666667 1
vt -1.333333 0
vt -1.333333 1.333333
vt -1 1.333333
vt -1.666667 0
vt -1.666667 1.666667
vt -1.333333 1.666667
vt -2 0
vt -2 2
vt -1.666667 2
vt -2.333333 0
vt -2.333333 2.333333
vt -2 2.333333
vt -2.666667 0
vt -2.666667 2.666667
vt -2.333333 2.666667
vt -3 0
vt -3 3
vt -2.666667 3
vt -3.333333 0
vt -3.333333 3.333333
vt -3 3.333333
vt -3.666667 0
vt -3.666667 3.666667
vt -3.333333 3.666667
vt -4 0
vt -4 4
vt -3.666667 4
vt -4.333333 0
vt -4.333333 4.333333
vt -4 4.333333
vt -4.666667 0
vt -4.666667 4.666667
vt -4.333333 4.666667
vt -4.666667 5
vt -5.333333 0
vt -5.333333 5.333333
vt -5.666667 0
vt -5.666667 5.666667
vt -5.333333 5.666667
vt -6 0
vt -6 6
vt -5.666667 6
vt -6.333333 0
vt -6.333333 6.333333
vt -6 6.333333
vt -6.666667 0
vt -6.666667 6.666667
vt -6.333333 6.666667
vt -7 0
vt -7 7
vt -6.666667 7
vt -7.333333 0
vt -7.333333 7.333333
vt -7 7.333333
vt -7.666667 0
vt -7.666667 7.666667
vt -7.333333 7.666667
vt -8 0
vt -8 8
vt -7.666667 8
vt -8.333333 0
vt -8.333333 8.333333
vt -8 8.333333
vt -8.666667 0
vt -8.666667 8.666667
vt -8.333333 8.666667
vt -9 0
vt -9 9
vt -8.666667 9
vt -9.333333 0
vt -9.333333 9.333333
vt -9 9.333333
vt -9.666667 0
vt -9.666667 9.666667
vt -9.333333 9.666667
vt -10 0
vt -10 10
vt -9.666667 10
vt 0.3333333 0
vt 0.3333333 0.3333333
vt 0.6666667 0
vt 0.6666667 0.6666667
vt 0.3333333 0.6666667
vt 1 0
vt 1 1
vt 0.6666667 1
vt 1.333333 0
vt 1.333333 1.333333
vt 1 1.333333
vt 1.666667 0
vt 1.666667 1.666667
vt 1.333333 1.666667
vt 2 0
vt 2 2
vt 1.666667 2
vt 2.333333 0
vt 2.333333 2.333333
vt 2 2.333333
vt 2.666667 0
vt 2.666667 2.666667
vt 2.333333 2.666667
vt 3 0
vt 3 3
vt 2.666667 3
vt 3.333333 0
vt 3.333333 3.333333
vt 3 3.333333
vt 3.666667 0
vt 3.666667 3.666667
vt 3.333333 3.666667
vt 4 0
vt 4 4
vt 3.666667 4
vt 4.333333 0
vt 4.333333 4.333333
vt 4 4.333333
vt 4.666667 0
vt 4.666667 4.666667
vt 4.333333 4.666667
vt 5 0
vt 5 5
vt 4.666667 5
vt 5.333333 0
vt 5.333333 5.333333
vt 5 5.333333
vt 5.666667 0
vt 5.666667 5.666667
vt 5.333333 5.666667
vt 6 0
vt 6 6
vt 5.666667 6
vt 6.333333 0
vt 6.333333 6.333333
vt 6 6.333333
vt 6.666667 0
vt 6.666667 6.666667
vt 6.333333 6.666667
vt 7 0
vt 7 7
vt 6.666667 7
vt 7.333333 0
vt 7.333333 7.333333
vt 7 7.333333
vt 7.666667 0
vt 7.666667 7.666667
vt 7.333333 7.666667
vt 8 0
vt 8 8
vt 7.666667 8
vt 8.333333 0
vt 8.333333 8.333333
vt 8 8.333333
vt 8.666667 0
vt 8.666667 8.666667
vt 8.333333 8.666667
vt 9 0
vt 9 9
vt 8.666667 9
vt 9.333333 0
vt 9.333333 9.333333
vt 9 9.333333
vt 9.666667 0
vt 9.666667 9.666667
vt 9.333333 9.666667
vt 10 0
vt 10 10
vt 9.666667 10
vt 5 10

vn 0 0 -1
vn 0 1 0
vn 1 0 0
vn -1 0 0
vn 0 0 1

usemtl ProBuilderDefault
f 3/3/1 2/2/1 1/1/1
f 3/3/1 4/4/1 2/2/1
f 5/3/2 4/2/2 3/1/2
f 5/3/2 6/4/2 4/2/2
f 7/5/1 6/4/1 5/3/1
f 7/5/1 8/6/1 6/4/1
f 9/5/2 8/4/2 7/3/2
f 9/5/2 10/6/2 8/4/2
f 11/7/1 10/6/1 9/5/1
f 11/7/1 12/8/1 10/6/1
f 13/7/2 12/6/2 11/5/2
f 13/7/2 14/8/2 12/6/2
f 15/9/1 14/8/1 13/7/1
f 15/9/1 16/10/1 14/8/1
f 17/9/2 16/8/2 15/7/2
f 17/9/2 18/10/2 16/8/2
f 19/11/1 18/10/1 17/9/1
f 19/11/1 20/12/1 18/10/1
f 21/11/2 20/10/2 19/9/2
f 21/11/2 22/12/2 20/10/2
f 23/13/1 22/12/1 21/11/1
f 23/13/1 24/14/1 22/12/1
f 25/13/2 24/12/2 23/11/2
f 25/13/2 26/14/2 24/12/2
f 27/15/1 26/14/1 25/13/1
f 27/15/1 28/16/1 26/14/1
f 29/15/2 28/14/2 27/13/2
f 29/15/2 30/16/2 28/14/2
f 31/17/1 30/16/1 29/15/1
f 31/17/1 32/18/1 30/16/1
f 33/17/2 32/16/2 31/15/2
f 33/17/2 34/18/2 32/16/2
f 35/19/1 34/18/1 33/17/1
f 35/19/1 36/20/1 34/18/1
f 37/19/2 36/18/2 35/17/2
f 37/19/2 38/20/2 36/18/2
f 39/21/1 38/20/1 37/19/1
f 39/21/1 40/22/1 38/20/1
f 41/21/2 40/20/2 39/19/2
f 41/21/2 42/22/2 40/20/2
f 43/23/1 42/22/1 41/21/1
f 43/23/1 44/24/1 42/22/1
f 45/23/2 44/22/2 43/21/2
f 45/23/2 46/24/2 44/22/2
f 47/25/1 46/24/1 45/23/1
f 47/25/1 48/26/1 46/24/1
f 49/25/2 48/24/2 47/23/2
f 49/25/2 50/26/2 48/24/2
f 51/27/1 50/26/1 49/25/1
f 51/27/1 52/28/1 50/26/1
f 53/27/2 52/26/2 51/25/2
f 53/27/2 54/28/2 52/26/2
f 55/29/1 54/28/1 53/27/1
f 55/29/1 56/30/1 54/28/1
f 57/29/2 56/28/2 55/27/2
f 57/29/2 58/30/2 56/28/2
f 59/31/1 58/30/1 57/29/1
f 59/31/1 60/32/1 58/30/1
f 61/31/2 60/30/2 59/29/2
f 61/31/2 62/32/2 60/30/2
f 63/33/1 62/32/1 61/31/1
f 63/33/1 64/34/1 62/32/1
f 65/33/2 64/32/2 63/31/2
f 65/33/2 66/34/2 64/32/2
f 67/35/1 66/34/1 65/33/1
f 67/35/1 68/36/1 66/34/1
f 69/35/2 68/34/2 67/33/2
f 69/35/2 70/36/2 68/34/2
f 71/37/1 70/36/1 69/35/1
f 71/37/1 72/38/1 70/36/1
f 73/37/2 72/36/2 71/35/2
f 73/37/2 74/38/2 72/36/2
f 75/39/1 74/38/1 73/37/1
f 75/39/1 76/40/1 74/38/1
f 77/39/2 76/38/2 75/37/2
f 77/39/2 78/40/2 76/38/2
f 79/41/1 78/40/1 77/39/1
f 79/41/1 80/42/1 78/40/1
f 81/41/2 80/40/2 79/39/2
f 81/41/2 82/42/2 80/40/2
f 83/43/1 82/42/1 81/41/1
f 83/43/1 84/44/1 82/42/1
f 85/43/2 84/42/2 83/41/2
f 85/43/2 86/44/2 84/42/2
f 87/45/1 86/44/1 85/43/1
f 87/45/1 88/46/1 86/44/1
f 89/45/2 88/44/2 87/43/2
f 89/45/2 90/46/2 88/44/2
f 91/47/1 90/46/1 89/45/1
f 91/47/1 92/48/1 90/46/1
f 93/47/2 92/46/2 91/45/2
f 93/47/2 94/48/2 92/46/2
f 95/49/1 94/48/1 93/47/1
f 95/49/1 96/50/1 94/48/1
f 97/49/2 96/48/2 95/47/2
f 97/49/2 98/50/2 96/48/2
f 99/51/1 98/50/1 97/49/1
f 99/51/1 100/52/1 98/50/1
f 101/51/2 100/50/2 99/49/2
f 101/51/2 102/52/2 100/50/2
f 103/53/1 102/52/1 101/51/1
f 103/53/1 104/54/1 102/52/1
f 105/53/2 104/52/2 103/51/2
f 105/53/2 106/54/2 104/52/2
f 107/55/1 106/54/1 105/53/1
f 107/55/1 108/56/1 106/54/1
f 109/55/2 108/54/2 107/53/2
f 109/55/2 110/56/2 108/54/2
f 111/57/1 110/56/1 109/55/1
f 111/57/1 112/58/1 110/56/1
f 113/57/2 112/56/2 111/55/2
f 113/57/2 114/58/2 112/56/2
f 115/59/1 114/58/1 113/57/1
f 115/59/1 116/60/1 114/58/1
f 117/59/2 116/58/2 115/57/2
f 117/59/2 118/60/2 116/58/2
f 119/61/1 118/60/1 117/59/1
f 119/61/1 120/62/1 118/60/1
f 121/61/2 120/60/2 119/59/2
f 121/61/2 122/62/2 120/60/2
f 4/3/3 123/63/3 2/1/3
f 4/3/3 6/64/3 123/63/3
f 6/64/3 124/65/3 123/63/3
f 6/64/3 10/66/3 124/65/3
f 6/64/3 8/67/3 10/66/3
f 10/66/3 125/68/3 124/65/3
f 10/66/3 14/69/3 125/68/3
f 10/66/3 12/70/3 14/69/3
f 14/69/3 126/71/3 125/68/3
f 14/69/3 18/72/3 126/71/3
f 14/69/3 16/73/3 18/72/3
f 18/72/3 127/74/3 126/71/3
f 18/72/3 22/75/3 127/74/3
f 18/72/3 20/76/3 22/75/3
f 22/75/3 128/77/3 127/74/3
f 22/75/3 26/78/3 128/77/3
f 22/75/3 24/79/3 26/78/3
f 26/78/3 129/80/3 128/77/3
f 26/78/3 30/81/3 129/80/3
f 26/78/3 28/82/3 30/81/3
f 30/81/3 130/83/3 129/80/3
f 30/81/3 34/84/3 130/83/3
f 30/81/3 32/85/3 34/84/3
f 34/84/3 131/86/3 130/83/3
f 34/84/3 38/87/3 131/86/3
f 34/84/3 36/88/3 38/87/3
f 38/87/3 132/89/3 131/86/3
f 38/87/3 42/90/3 132/89/3
f 38/87/3 40/91/3 42/90/3
f 42/90/3 133/92/3 132/89/3
f 42/90/3 46/93/3 133/92/3
f 42/90/3 44/94/3 46/93/3
f 46/93/3 134/95/3 133/92/3
f 46/93/3 50/96/3 134/95/3
f 46/93/3 48/97/3 50/96/3
f 50/96/3 135/98/3 134/95/3
f 50/96/3 54/99/3 135/98/3
f 50/96/3 52/100/3 54/99/3
f 54/99/3 136/101/3 135/98/3
f 54/99/3 58/102/3 136/101/3
f 54/99/3 56/103/3 58/102/3
f 58/102/3 137/2/3 136/101/3
f 58/102/3 62/32/3 137/2/3
f 58/102/3 60/104/3 62/32/3
f 62/32/3 138/105/3 137/2/3
f 62/32/3 66/106/3 138/105/3
f 62/32/3 64/34/3 66/106/3
f 66/106/3 139/107/3 138/105/3
f 66/106/3 70/108/3 139/107/3
f 66/106/3 68/109/3 70/108/3
f 70/108/3 140/110/3 139/107/3
f 70/108/3 74/111/3 140/110/3
f 70/108/3 72/112/3 74/111/3
f 74/111/3 141/113/3 140/110/3
f 74/111/3 78/114/3 141/113/3
f 74/111/3 76/115/3 78/114/3
f 78/114/3 142/116/3 141/113/3
f 78/114/3 82/117/3 142/116/3
f 78/114/3 80/118/3 82/117/3
f 82/117/3 143/119/3 142/116/3
f 82/117/3 86/120/3 143/119/3
f 82/117/3 84/121/3 86/120/3
f 86/120/3 144/122/3 143/119/3
f 86/120/3 90/123/3 144/122/3
f 86/120/3 88/124/3 90/123/3
f 90/123/3 145/125/3 144/122/3
f 90/123/3 94/126/3 145/125/3
f 90/123/3 92/127/3 94/126/3
f 94/126/3 146/128/3 145/125/3
f 94/126/3 98/129/3 146/128/3
f 94/126/3 96/130/3 98/129/3
f 98/129/3 147/131/3 146/128/3
f 98/129/3 102/132/3 147/131/3
f 98/129/3 100/133/3 102/132/3
f 102/132/3 148/134/3 147/131/3
f 102/132/3 106/135/3 148/134/3
f 102/132/3 104/136/3 106/135/3
f 106/135/3 149/137/3 148/134/3
f 106/135/3 110/138/3 149/137/3
f 106/135/3 108/139/3 110/138/3
f 110/138/3 150/140/3 149/137/3
f 110/138/3 114/141/3 150/140/3
f 110/138/3 112/142/3 114/141/3
f 114/141/3 151/143/3 150/140/3
f 114/141/3 118/144/3 151/143/3
f 114/141/3 116/145/3 118/144/3
f 118/144/3 152/146/3 151/143/3
f 118/144/3 122/147/3 152/146/3
f 118/144/3 120/148/3 122/147/3
f 1/1/4 153/149/4 3/3/4
f 153/149/4 5/150/4 3/3/4
f 153/149/4 154/151/4 5/150/4
f 154/151/4 9/152/4 5/150/4
f 9/152/4 7/153/4 5/150/4
f 154/151/4 155/154/4 9/152/4
f 155/154/4 13/155/4 9/152/4
f 13/155/4 11/156/4 9/152/4
f 155/154/4 156/157/4 13/155/4
f 156/157/4 17/158/4 13/155/4
f 17/158/4 15/159/4 13/155/4
f 156/157/4 157/160/4 17/158/4
f 157/160/4 21/161/4 17/158/4
f 21/161/4 19/162/4 17/158/4
f 157/160/4 158/163/4 21/161/4
f 158/163/4 25/164/4 21/161/4
f 25/164/4 23/165/4 21/161/4
f 158/163/4 159/166/4 25/164/4
f 159/166/4 29/167/4 25/164/4
f 29/167/4 27/168/4 25/164/4
f 159/166/4 160/169/4 29/167/4
f 160/169/4 33/170/4 29/167/4
f 33/170/4 31/171/4 29/167/4
f 160/169/4 161/172/4 33/170/4
f 161/172/4 37/173/4 33/170/4
f 37/173/4 35/174/4 33/170/4
f 161/172/4 162/175/4 37/173/4
f 162/175/4 41/176/4 37/173/4
f 41/176/4 39/177/4 37/173/4
f 162/175/4 163/178/4 41/176/4
f 163/178/4 45/179/4 41/176/4
f 45/179/4 43/180/4 41/176/4
f 163/178/4 164/181/4 45/179/4
f 164/181/4 49/182/4 45/179/4
f 49/182/4 47/183/4 45/179/4
f 164/181/4 165/184/4 49/182/4
f 165/184/4 53/185/4 49/182/4
f 53/185/4 51/186/4 49/182/4
f 165/184/4 166/187/4 53/185/4
f 166/187/4 57/188/4 53/185/4
f 57/188/4 55/189/4 53/185/4
f 166/187/4 167/190/4 57/188/4
f 167/190/4 61/191/4 57/188/4
f 61/191/4 59/192/4 57/188/4
f 167/190/4 168/193/4 61/191/4
f 168/193/4 65/194/4 61/191/4
f 65/194/4 63/195/4 61/191/4
f 168/193/4 169/196/4 65/194/4
f 169/196/4 69/197/4 65/194/4
f 69/197/4 67/198/4 65/194/4
f 169/196/4 170/199/4 69/197/4
f 170/199/4 73/200/4 69/197/4
f 73/200/4 71/201/4 69/197/4
f 170/199/4 171/202/4 73/200/4
f 171/202/4 77/203/4 73/200/4
f 77/203/4 75/204/4 73/200/4
f 171/202/4 172/205/4 77/203/4
f 172/205/4 81/206/4 77/203/4
f 81/206/4 79/207/4 77/203/4
f 172/205/4 173/208/4 81/206/4
f 173/208/4 85/209/4 81/206/4
f 85/209/4 83/210/4 81/206/4
f 173/208/4 174/211/4 85/209/4
f 174/211/4 89/212/4 85/209/4
f 89/212/4 87/213/4 85/209/4
f 174/211/4 175/214/4 89/212/4
f 175/214/4 93/215/4 89/212/4
f 93/215/4 91/216/4 89/212/4
f 175/214/4 176/217/4 93/215/4
f 176/217/4 97/218/4 93/215/4
f 97/218/4 95/219/4 93/215/4
f 176/217/4 177/220/4 97/218/4
f 177/220/4 101/221/4 97/218/4
f 101/221/4 99/222/4 97/218/4
f 177/220/4 178/223/4 101/221/4
f 178/223/4 105/224/4 101/221/4
f 105/224/4 103/225/4 101/221/4
f 178/223/4 179/226/4 105/224/4
f 179/226/4 109/227/4 105/224/4
f 109/227/4 107/228/4 105/224/4
f 179/226/4 180/229/4 109/227/4
f 180/229/4 113/230/4 109/227/4
f 113/230/4 111/231/4 109/227/4
f 180/229/4 181/232/4 113/230/4
f 181/232/4 117/233/4 113/230/4
f 117/233/4 115/234/4 113/230/4
f 181/232/4 182/235/4 117/233/4
f 182/235/4 121/236/4 117/233/4
f 121/236/4 119/237/4 117/233/4
f 122/238/5 182/1/5 152/190/5
f 122/238/5 121/61/5 182/1/5

